<svg class="about__svg" width="610" height="559" viewBox="0 0 610 559" fill="none">
              <g clip-path="url(#clip1)">
                <path d="M65.3079 466.721c0 31.47-14.6197 42.458-32.654 42.458C14.6197 509.179 0 498.191 0 466.721s32.6539-71.504 32.6539-71.504 32.654 40.034 32.654 71.504z" fill="#F2F2F2"></path>
                <path d="M31.4645 504.365l.3343-26.337 13.918-32.584-13.8656 28.452.1504-11.843 9.5921-23.573-9.5523 20.439v.001l.2705-21.3 10.2714-18.767-10.2291 15.418.1687-39.054-1.0616 51.701.0872-2.133-10.4426-20.455 10.2752 24.549-.9731 23.788-.0285-.631-12.0394-21.526 12.0028 23.756-.122 2.975-.0215.044.0101.244-2.4688 60.351h3.2985l.3956-31.172 11.9731-23.699-11.9434 21.356z" fill="#3F3D56"></path>
                <path d="M322.768 62.3692C408.5 149.787 422.621 309.59 354.307 419.298 285.994 529.006 77.9371 599.897 75.3845 459.657 72.8156 318.52 16.0619 186.256 43.8456 102.729 86.7785-26.343 237.037-25.0491 322.768 62.3692z" fill="#F2F2F2"></path>
                <path d="M95.0069 558.646c50.2541 0 90.9931-8.688 90.9931-19.406 0-10.718-40.739-19.407-90.9931-19.407-50.2539 0-90.99268 8.689-90.99268 19.407S44.753 558.646 95.0069 558.646zM560.339 542.29c24.748 0 44.81-4.279 44.81-9.557 0-5.278-20.062-9.557-44.81-9.557s-44.81 4.279-44.81 9.557c0 5.278 20.062 9.557 44.81 9.557zM610 130.081H90.5836v359.025H610V130.081z" fill="#3F3D56"></path>
                <path d="M610 100.971H90.5836v33.153H610v-33.153z" fill="#3F3D56"></path>
                <path d="M103.222 121.186c2.442 0 4.423-2.534 4.423-5.66 0-3.126-1.981-5.661-4.423-5.661-2.443 0-4.4238 2.535-4.4238 5.661 0 3.126 1.9808 5.66 4.4238 5.66zM115.859 121.186c2.443 0 4.424-2.534 4.424-5.66 0-3.126-1.981-5.661-4.424-5.661-2.443 0-4.423 2.535-4.423 5.661 0 3.126 1.98 5.66 4.423 5.66zM128.497 121.186c2.443 0 4.423-2.534 4.423-5.66 0-3.126-1.98-5.661-4.423-5.661s-4.423 2.535-4.423 5.661c0 3.126 1.98 5.66 4.423 5.66z" fill="#6C63FF"></path>
                <path opacity=".1" d="M610 130.081H90.5836v4.043H610v-4.043z" fill="#000"></path>
                <path opacity=".3" d="M222.965 187.088H120.599v139.89h102.366v-139.89z" fill="#6C63FF"></path>
                <path d="M229.916 177.385H127.549v139.89h102.367v-139.89z" fill="#6772E5"></path>
                <path opacity=".3" d="M574.641 184.844h-78.698V292.39h78.698V184.844z" fill="#6C63FF"></path>
                <path d="M579.985 177.385h-78.698v107.546h78.698V177.385z" fill="#6772E5"></path>
                <path opacity=".3" d="M574.641 334.256h-78.698v107.546h78.698V334.256z" fill="#6C63FF"></path>
                <path d="M579.985 326.796h-78.698v107.546h78.698V326.796zM461.189 177.385H265.934v9.703h195.255v-9.703zM461.189 205.686H265.934v9.704h195.255v-9.704zM461.189 233.988H265.934v9.703h195.255v-9.703zM461.189 262.289H265.934v9.704h195.255v-9.704zM461.189 290.591H265.934v9.703h195.255v-9.703zM461.189 318.892H265.934v9.704h195.255v-9.704zM461.189 347.194H265.934v9.703h195.255v-9.703zM461.189 375.495H265.934v9.704h195.255v-9.704zM461.189 403.797H265.934v9.703h195.255v-9.703zM461.189 432.098H265.934v9.704h195.255v-9.704z" fill="#6C63FF"></path>
                <path d="M79.8329 253.701c7.5032 0 13.5857-7.784 13.5857-17.385 0-9.602-6.0825-17.386-13.5857-17.386s-13.5858 7.784-13.5858 17.386c0 9.601 6.0826 17.385 13.5858 17.385z" fill="#A0616A"></path>
                <path d="M71.0421 244.497s0 18.408-2.3975 20.453c-2.3975 2.045 19.1799 4.091 19.1799 4.091v-23.522l-16.7824-1.022zM44.6697 346.763s15.1841 22.499 18.3808 22.499c3.1966 0 6.3933-15.34 6.3933-15.34l-15.1841-14.318-9.59 7.159zM120.59 245.52l2.398-21.476s1.598-29.658 6.393-22.499c4.795 7.159 1.598 23.521 1.598 23.521s2.398 23.522 0 26.59c-2.397 3.068-10.389-6.136-10.389-6.136z" fill="#A0616A"></path>
                <path d="M107.004 361.081l-43.1544-5.114s-5.5941 33.748-3.9958 47.043c1.5983 13.294 2.3975 51.133 2.3975 51.133s1.5983 68.518 3.9958 72.609c2.3975 4.091 10.3891 3.068 12.7866 5.113 2.3975 2.046 6.3933-4.09 6.3933-5.113 0-1.023-4.795-1.023-2.3975-7.159s-6.3933-23.521-3.9958-31.702c2.3975-8.181 6.3933-19.431 3.9958-23.521-2.3975-4.091 1.5983-56.247 1.5983-56.247s19.9792 36.816 19.9792 53.179c0 16.362-1.598 54.201-2.398 58.291-.799 4.091-1.598 5.114 0 8.182 1.599 3.068 3.197 6.136 2.398 7.158-.799 1.023 14.385 0 14.385-6.136s-.799-6.136.799-11.249 2.397-66.473 2.397-66.473l-15.184-89.994z" fill="#2F2E41"></path>
                <path d="M68.6446 257.792l-2.3975 6.135s-25.5732 10.227-26.3724 31.703l21.5774 46.02s1.5983 3.068.7992 5.113c-.7992 2.046-1.5983 1.023-.7992 4.091.7992 3.068.7992 2.045.7992 4.09 0 2.046-2.3975 1.023 0 2.046 2.3975 1.022-.7992 0 7.9916 3.068s35.1631 2.045 35.1631 2.045l-4.795-59.314 4.795-12.272-6.3933-24.544s-3.9958-1.023-6.3933 1.022c-2.3974 2.046-5.5941-2.045-5.5941-2.045s-3.9958-7.158-18.3807-7.158z" fill="#575A89"></path>
                <path d="M95.0169 266.996l3.9958-1.023s15.9833-6.136 16.7823-11.249c.799-5.114 4.795-11.25 4.795-11.25s12.787-4.09 11.988 9.204c-.8 13.295-3.996 17.386-5.595 19.431-1.598 2.045-19.179 18.408-22.376 18.408-3.197 0-9.5901-23.521-9.5901-23.521zM41.473 291.54l-1.5983 4.09-.7991 36.816s-4.795 4.091-2.3975 6.136 7.9916 11.249 9.5899 11.249c1.5984 0 10.3891-5.113 10.3891-7.158 0-2.046-1.5983-20.454-1.5983-20.454L41.473 291.54z" fill="#575A89"></path>
                <path d="M71.0421 526.752s0 10.227-.7992 12.272-2.3975 12.272 2.3975 12.272c2.747.05 5.471-.647 7.9916-2.045 0 0 0-6.136 2.3975-7.159 2.3975-1.023 7.9916-9.204 5.5941-11.249-2.3974-2.046-7.1924-4.091-7.1924-4.091H71.0421zM105.406 531.865s-4.795 14.318 0 15.34c4.795 1.023 11.188 0 11.987-2.045.8-2.045 2.398-4.091 3.996-3.068 1.599 1.023 15.184-11.249 10.389-13.295-2.852-1.222-5.938-1.222-8.79 0l-4.795-3.068-12.787 6.136zM81.5502 255.478c.2269-.018.4484-.096.6504-.23.3254-.335.5415-.814.6061-1.342l1.6321-7.399c.6193-2.808 1.614-6.088 3.846-6.681.4679-.04.9253-.196 1.3469-.459.2447-.295.4367-.653.5629-1.052.1263-.398.1838-.827.1685-1.256l.6993-9.564c.1891-2.586.3685-5.275-.3364-7.71-1.0397-3.592-3.8904-5.958-6.8364-6.638-2.9461-.68-5.981.081-8.8487 1.18-4.3501 1.668-8.8549 4.539-10.7447 9.823-1.0942 3.059-1.1615 6.547-1.0153 9.906.1506 3.459.5267 6.984 1.7689 10.062.6906 1.592 1.4923 3.099 2.3954 4.506 1.349 2.234 3.0037 6.603 5.2364 7.436 2.517.94 6.3182-.158 8.8686-.582zM524.538 472.585c0 30.751 15.075 55.635 33.706 55.635l-33.706-55.635z" fill="#2F2E41"></path>
                <path d="M558.244 528.219c0-31.096 16.823-56.259 37.613-56.259l-37.613 56.259z" fill="#6C63FF"></path>
                <path d="M536.75 475.373c0 29.21 9.613 52.846 21.494 52.846l-21.494-52.846z" fill="#6C63FF"></path>
                <path d="M558.244 528.219c0-39.734 19.445-71.886 43.475-71.886l-43.475 71.886z" fill="#2F2E41"></path>
                <path d="M551.153 528.612s4.78-.189 6.22-1.501c1.441-1.313 7.353-2.881 7.711-.775.357 2.105 7.183 10.47 1.786 10.526-5.396.056-12.539-1.076-13.977-2.196-1.437-1.121-1.74-6.054-1.74-6.054z" fill="#A8A8A8"></path>
                <path opacity=".2" d="M566.967 536.129c-5.397.056-12.54-1.075-13.977-2.196-1.095-.854-1.532-3.916-1.678-5.329-.101.005-.159.008-.159.008s.303 4.933 1.74 6.054c1.438 1.121 8.581 2.252 13.977 2.196 1.558-.016 2.096-.725 2.067-1.776-.217.635-.811 1.031-1.97 1.043z" fill="#000"></path>
              </g>
              <defs>
                <clipPath id="clip1">
                  <path fill="#fff" transform="translate(0 .700195)" d="M0 0h610v557.946H0z"></path>
                </clipPath>
              </defs>
            </svg>