<svg width="32" height="28" viewBox="0 0 32 28" fill="none" xmlns="http://www.w3.org/2000/svg">
<path d="M32 3.78647C31.786 4.23836 31.3876 4.80916 30.8049 5.49884C30.2222 6.18852 29.5028 6.795 28.6466 7.31823C28.6704 7.50852 28.6882 7.68687 28.7001 7.85335C28.7925 10.4165 28.1785 13.0759 27.3266 15.2915C25.6755 19.4108 23.1454 22.726 19.5318 24.9771C15.7634 27.1386 11.3746 27.5984 7.33109 27.2067C4.64667 26.8984 2.00088 26.0219 0 24.3706C3.65955 24.8081 7.0748 23.5632 9.7748 21.5523C6.77555 21.6282 4.59637 19.4586 3.56747 16.9503C4.03128 17.0719 4.51648 17.0572 4.95877 17.0217C5.5032 16.9705 6.02 16.9195 6.52845 16.8077C4.616 16.1906 2.94261 15.0563 2.06915 13.3472C1.5568 12.2643 1.32547 11.233 1.32 10.0652C2.21613 10.537 3.29408 10.9968 4.28099 10.957C2.79053 9.69442 1.59565 8.08081 1.37352 6.23012C1.23328 4.68703 1.61941 3.27844 2.17621 1.96703C4.40573 4.41729 6.90728 6.43375 9.79269 7.67495C11.766 8.483 13.7337 8.91513 15.7682 8.92353C15.5333 7.10633 15.7159 5.34887 16.5709 3.85775C17.577 2.2546 19.045 1.32447 20.6913 0.861081C23.047 0.257028 25.3445 1.11028 26.7917 2.75183C28.3522 2.58327 29.8471 1.89095 31.0369 1.18215C30.5314 2.71308 29.5469 4.23527 28.1116 4.96364C29.4782 4.71063 30.7822 4.30607 32 3.78647Z" fill="#1DA1F2"/>
</svg>
