<svg width="20" height="32" viewBox="0 0 20 32" fill="none" xmlns="http://www.w3.org/2000/svg">
<path fill-rule="evenodd" clip-rule="evenodd" d="M9.59999 0C8.85599 0.84621 8.39999 1.95649 8.39999 3.16879C8.44799 5.83945 8.77199 8.50412 8.80199 11.1748C8.86199 13.6594 8.11799 15.994 7.21199 18.2685C6.90599 18.8987 6.58199 19.5169 6.25199 20.135L5.29199 19.937C4.42199 19.7629 3.85799 18.9227 4.03199 18.0585C4.18799 17.2963 4.85399 16.7742 5.59799 16.7682L5.94599 16.8042L5.16599 10.2866C4.90799 7.38184 3.41399 4.83121 1.206 3.16881C0.822 2.88674 0.419999 2.62867 0 2.39462V25.5723H5.35201C5.754 27.7448 6.948 29.6353 8.628 30.9376C9.03 31.2077 9.36 31.5738 9.6 31.9999C9.84 31.5738 10.17 31.2077 10.572 30.9376C12.252 29.6353 13.446 27.7448 13.848 25.5723H19.2V2.39462C18.78 2.62868 18.378 2.88674 17.994 3.16881C15.786 4.83122 14.292 7.38186 14.034 10.2866L13.254 16.8042L13.602 16.7682C14.346 16.7742 15.012 17.2963 15.168 18.0585C15.342 18.9227 14.778 19.7629 13.908 19.937L12.948 20.135C12.618 19.5169 12.294 18.8987 11.988 18.2685C11.082 15.994 10.338 13.6594 10.398 11.1748C10.428 8.50412 10.752 5.83945 10.8 3.16879C10.8 1.95649 10.344 0.846212 9.60001 0H9.59999ZM1.60199 5.73743C2.63999 6.94973 3.33599 8.4621 3.53999 10.1305L4.18199 15.5139C3.36599 15.922 2.74199 16.6661 2.50799 17.5664H1.60199V5.73742V5.73743ZM17.598 5.73743V17.5664H16.692C16.458 16.6662 15.834 15.922 15.018 15.5139L15.66 10.1305C15.864 8.46212 16.56 6.94974 17.598 5.73744V5.73743ZM9.59999 16.5521C10.026 17.9565 10.62 19.2888 11.352 20.5311C10.656 20.7472 10.044 21.1613 9.59999 21.7134C9.15599 21.1553 8.54399 20.7472 7.84799 20.5311C8.57999 19.2888 9.17399 17.9565 9.59999 16.5521ZM1.60199 19.1688H2.50799C2.79599 20.273 3.65399 21.1493 4.75199 21.4493L5.51999 21.6294C5.31599 22.3736 5.20199 23.1598 5.20199 23.97H1.602V19.1688L1.60199 19.1688ZM16.692 19.1688H17.598V23.97H13.998C13.998 23.1598 13.884 22.3736 13.68 21.6294L14.448 21.4493C15.54 21.1493 16.404 20.273 16.692 19.1688L16.692 19.1688ZM7.08598 21.9955C8.05198 22.1335 8.80198 22.9617 8.80198 23.97H6.80398C6.80398 23.2858 6.90598 22.6256 7.08598 21.9955ZM12.114 21.9955C12.294 22.6256 12.396 23.2858 12.396 23.97H10.398C10.398 22.9617 11.148 22.1335 12.114 21.9955ZM6.98396 25.5724H8.80197V28.9392C7.91997 28.015 7.27796 26.8567 6.98396 25.5724ZM10.398 25.5724H12.216C11.922 26.8567 11.28 28.015 10.398 28.9392V25.5724Z" fill="#1E5F94"/>
</svg>
